<?xml version="1.0" encoding="UTF-8" standalone="no"?>
<!-- Created with Inkscape (http://www.inkscape.org/) -->

<svg
   xmlns:osb="http://www.openswatchbook.org/uri/2009/osb"
   xmlns:dc="http://purl.org/dc/elements/1.1/"
   xmlns:cc="http://creativecommons.org/ns#"
   xmlns:rdf="http://www.w3.org/1999/02/22-rdf-syntax-ns#"
   xmlns:svg="http://www.w3.org/2000/svg"
   xmlns="http://www.w3.org/2000/svg"
   xmlns:xlink="http://www.w3.org/1999/xlink"
   xmlns:sodipodi="http://sodipodi.sourceforge.net/DTD/sodipodi-0.dtd"
   xmlns:inkscape="http://www.inkscape.org/namespaces/inkscape"
   width="168.67381mm"
   height="65.691887mm"
   viewBox="0 0 168.67382 65.691887"
   version="1.1"
   id="svg8"
   inkscape:version="0.92.3 (2405546, 2018-03-11)"
   sodipodi:docname="redagate-logo.svg">
  <defs
     id="defs2">
    <linearGradient
       id="linearGradient2337"
       osb:paint="solid">
      <stop
         style="stop-color:#bc0000;stop-opacity:1;"
         offset="0"
         id="stop2335" />
    </linearGradient>
    <linearGradient
       inkscape:collect="always"
       id="linearGradient4491-7">
      <stop
         style="stop-color:#bc0000;stop-opacity:1;"
         offset="0"
         id="stop4500" />
      <stop
         style="stop-color:#bc0000;stop-opacity:0;"
         offset="1"
         id="stop4502" />
    </linearGradient>
    <linearGradient
       inkscape:collect="always"
       xlink:href="#linearGradient4491-7"
       id="linearGradient4510"
       gradientUnits="userSpaceOnUse"
       gradientTransform="translate(-29.558547,-41.240068)"
       x1="30.427084"
       y1="54.641666"
       x2="85.724998"
       y2="54.641666" />
  </defs>
  <sodipodi:namedview
     id="base"
     pagecolor="#ffffff"
     bordercolor="#666666"
     borderopacity="1.0"
     inkscape:pageopacity="0.0"
     inkscape:pageshadow="2"
     inkscape:zoom="1"
     inkscape:cx="-17.76478"
     inkscape:cy="-71.663235"
     inkscape:document-units="mm"
     inkscape:current-layer="g4538"
     showgrid="false"
     inkscape:window-width="1920"
     inkscape:window-height="948"
     inkscape:window-x="-8"
     inkscape:window-y="-8"
     inkscape:window-maximized="1"
     inkscape:snap-text-baseline="false"
     fit-margin-top="0.3"
     fit-margin-left="0.3"
     fit-margin-right="0.3"
     fit-margin-bottom="0.3" />
  <metadata
     id="metadata5">
    <rdf:RDF>
      <cc:Work
         rdf:about="">
        <dc:format>image/svg+xml</dc:format>
        <dc:type
           rdf:resource="http://purl.org/dc/dcmitype/StillImage" />
        <dc:title />
      </cc:Work>
    </rdf:RDF>
  </metadata>
  <g
     inkscape:label="レイヤー 1"
     inkscape:groupmode="layer"
     id="layer1"
     transform="translate(-3.9712039,-1.4542481)">
    <g
       id="g4538"
       transform="translate(15.345833,6.6145833)">
      <ellipse
         ry="29.633333"
         rx="27.648958"
         cy="13.401594"
         cx="28.5175"
         id="path4485"
         style="fill:url(#linearGradient4510);fill-opacity:1;fill-rule:nonzero;stroke:none;stroke-width:1.4552083;stroke-miterlimit:4;stroke-dasharray:none;stroke-opacity:1"
         transform="rotate(29.696915)" />
      <ellipse
         ry="29.633333"
         rx="27.648958"
         cy="13.401594"
         cx="28.649786"
         id="path4485-8"
         style="fill:#0072bc;fill-opacity:1;fill-rule:nonzero;stroke:none;stroke-width:1.4552083;stroke-miterlimit:4;stroke-dasharray:none;stroke-opacity:1"
         transform="rotate(29.696915)" />
      <ellipse
         ry="25.131792"
         rx="21.689766"
         cy="-6.2272058"
         cx="30.278944"
         id="path4485-8-8"
         style="fill:#70a0ff;fill-opacity:0.74440897;fill-rule:nonzero;stroke:none;stroke-width:1.18695629;stroke-miterlimit:4;stroke-dasharray:none;stroke-opacity:1"
         transform="matrix(0.36771979,0.92993664,-0.78294806,0.62208707,0,0)" />
      <ellipse
         ry="20.04994"
         rx="18.186882"
         cy="-3.9353361"
         cx="36.258324"
         id="path4485-8-8-6"
         style="fill:#70c7ff;fill-opacity:0.74440897;fill-rule:nonzero;stroke:none;stroke-width:0.97080326;stroke-miterlimit:4;stroke-dasharray:none;stroke-opacity:1"
         transform="matrix(0.33471005,0.94232117,-0.74902869,0.66253757,0,0)" />
      <ellipse
         ry="11.417182"
         rx="15.270011"
         cy="-16.866838"
         cx="36.972885"
         id="path4485-8-8-66"
         style="fill:#93e2ff;fill-opacity:0.74440897;fill-rule:nonzero;stroke:none;stroke-width:0.67126608;stroke-miterlimit:4;stroke-dasharray:none;stroke-opacity:1"
         transform="matrix(-0.08079005,0.99673114,-0.96157114,0.27455589,0,0)" />
      <g
         aria-label="Ménneu"
         transform="scale(0.97805261,1.0224399)"
         style="font-style:normal;font-weight:normal;font-size:11.16759396px;line-height:1.25;font-family:sans-serif;letter-spacing:0px;word-spacing:0px;fill:#000000;fill-opacity:1;stroke:none;stroke-width:0.27918985"
         id="text30">
        <path
           d="m 66.843418,30.725888 q 0,0.157044 -0.05235,0.26174 -0.05235,0.104696 -0.170132,0.261741 -0.104696,0.157044 -0.183218,0.274827 -0.07852,0.117783 -0.07852,0.22248 0,0.02617 -0.02617,0.09161 -0.01309,0.06544 -0.03926,0.196305 -0.06544,0.235567 -0.117784,0.392611 -0.05235,0.143957 -0.06543,0.209392 -0.13087,0.458046 -0.183218,0.889918 -0.05235,0.431872 -0.05235,0.955353 0,0.96844 -0.07852,1.963054 -0.02617,0.497307 -0.09161,1.046962 -0.05235,0.536568 -0.117783,1.138571 -0.06543,0.602003 -0.13087,1.151658 -0.05235,0.549656 -0.117783,1.06005 -0.09161,0.916091 -0.143958,1.910705 -0.03926,0.981527 -0.03926,2.054663 0,0.719787 0.02617,1.845271 0.02617,1.112397 0.05235,2.578144 0.157045,0.157044 0.48422,0.392611 0.366437,0.235566 0.523481,0.405698 0.170132,0.157044 0.170132,0.431872 0,0.497307 -0.523481,0.968439 -0.536568,0.471133 -1.033875,0.471133 -1.32179,0 -1.766749,-1.779835 -0.458046,-1.80601 -0.458046,-3.65128 0,-0.588916 0.07852,-1.177833 0.07852,-0.588916 0.143958,-1.190919 0.03926,-0.418785 0.117783,-1.204006 0.09161,-0.798309 0.222479,-1.976141 0.130871,-1.177833 0.196306,-1.792923 0.06544,-0.628177 0.07852,-0.732873 0.01309,-0.09161 0.02617,-0.301002 0.02617,-0.209392 0.06544,-0.549655 0.09161,-0.680525 0.13087,-1.177832 0.03926,-0.497307 0.03926,-0.785222 0.01309,-0.09161 0.01309,-0.170131 0.01309,-0.07852 0.01309,-0.209393 0,-0.09161 -0.130871,-0.340262 -0.222479,0.301001 -0.523481,0.706699 -0.301001,0.405698 -0.680525,0.916092 -0.772135,1.020788 -1.256355,1.688226 -0.248653,0.327176 -0.497307,0.654352 -0.235566,0.327175 -0.48422,0.654351 -0.248653,0.327176 -0.575829,0.759047 -0.314088,0.418785 -0.706699,0.96844 -0.850657,1.177833 -1.688226,2.394926 -0.03926,0.06544 -0.130871,0.196305 -0.09161,0.130871 -0.235566,0.340263 -0.287915,0.431872 -0.327176,0.471133 -0.916092,1.204006 -1.688226,1.426486 -1.256355,-0.366437 -1.7144,-1.151658 -0.117784,-0.209393 -0.209393,-0.366437 -0.07852,-0.157044 -0.157044,-0.287915 -0.07852,-0.143957 -0.157045,-0.274827 -0.07852,-0.143958 -0.170131,-0.301002 -0.26174,-0.458046 -0.471133,-0.83757 -0.209392,-0.379523 -0.379524,-0.680525 -0.327175,-0.602003 -0.641264,-1.282528 -0.314088,-0.693613 -0.575829,-1.439573 -0.157044,-0.497307 -0.26174,-0.811396 -0.104697,-0.327175 -0.157045,-0.471133 -0.05235,-0.157044 -0.13087,-0.418785 -0.07852,-0.26174 -0.183218,-0.628177 -0.104697,-0.366437 -0.235567,-0.74596 -0.117783,-0.379524 -0.248653,-0.772135 -0.261741,-0.824482 -0.287915,-0.889918 -0.09161,0.366437 -0.26174,0.929179 -0.157045,0.562742 -0.340263,1.204007 -0.170131,0.628177 -0.340263,1.269441 -0.170131,0.641264 -0.287914,1.151658 -0.130871,0.523481 -0.248654,0.994614 -0.104696,0.458046 -0.209392,0.876831 -0.22248,0.811396 -0.667439,2.55197 -0.287914,1.09931 -0.287914,2.172446 0,0.22248 0.03926,0.602004 0.03926,0.366436 0.13087,0.903004 0.09161,0.523481 0.13087,0.942266 0.03926,0.418785 0.03926,0.732874 0,0.340262 -0.35335,0.850656 -0.35335,0.497307 -0.693613,0.497307 -0.117783,0 -0.353349,-0.02617 -0.235567,-0.02617 -0.366437,-0.02617 -0.732873,0 -1.060049,-0.87683 -0.327176,-0.863744 -0.327176,-1.80601 0,-0.261741 0.130871,-0.772135 0.06544,-0.26174 0.157044,-0.628177 0.09161,-0.379524 0.209392,-0.837569 0.130871,-0.458046 0.196306,-0.719787 0.06544,-0.26174 0.07852,-0.314088 0.287914,-1.112398 0.523481,-1.989228 0.235566,-0.889918 0.418785,-1.570444 0.183218,-0.680525 0.379523,-1.413398 0.196306,-0.745961 0.418785,-1.570443 0.261741,-0.942266 0.444959,-1.583531 0.196306,-0.654351 0.314089,-1.282528 0.104696,-0.719786 0.157044,-0.96844 0.06544,-0.327176 0.183218,-0.667438 0.117784,-0.340263 0.261741,-0.680526 0.287915,-0.706699 0.732873,-0.706699 0.96844,0 1.544269,0.183218 0.562743,0.170132 0.942266,0.850657 0.183219,0.301002 0.314089,0.61509 0.13087,0.301002 0.222479,0.628177 0.09161,0.314089 0.196306,0.732874 0.104696,0.405698 0.209392,0.929179 0.05235,0.274827 0.157045,0.536568 0.104696,0.26174 0.222479,0.588916 1.007701,3.075451 3.023103,6.111641 0.06543,-0.06544 0.418785,-0.314089 0.170131,-0.13087 0.287914,-0.235566 0.130871,-0.104696 0.209393,-0.209392 0.183218,-0.22248 0.379523,-0.497307 0.196306,-0.287915 0.379524,-0.628178 0.392611,-0.680525 0.732874,-1.269441 0.353349,-0.588916 0.785221,-1.060049 0.209393,-0.22248 0.48422,-0.562742 0.287915,-0.35335 0.654351,-0.824483 0.366437,-0.471133 0.641265,-0.824483 0.287914,-0.353349 0.471133,-0.575829 0.222479,-0.248653 0.405697,-0.48422 0.196306,-0.235566 0.366437,-0.458046 0.170132,-0.222479 0.379524,-0.510394 0.222479,-0.287914 0.48422,-0.641264 0.117783,-0.143957 0.379524,-0.458046 0.13087,-0.157044 0.222479,-0.274827 0.104696,-0.130871 0.170131,-0.22248 0.235567,-0.327175 0.510394,-0.74596 0.287915,-0.418785 0.615091,-0.96844 0.340262,-0.549655 0.602003,-0.942266 0.26174,-0.405698 0.444959,-0.667438 0.07852,-0.117784 0.274827,-0.117784 0.183219,-0.01309 0.48422,0.104697 0.301002,0.117783 0.575829,0.301001 0.287915,0.170132 0.48422,0.366437 0.196306,0.196305 0.170132,0.35335 z"
           style="font-style:normal;font-variant:normal;font-weight:normal;font-stretch:normal;font-size:26.80222893px;font-family:'Segoe Script';-inkscape-font-specification:'Segoe Script, Normal';font-variant-ligatures:normal;font-variant-caps:normal;font-variant-numeric:normal;font-feature-settings:normal;text-align:start;writing-mode:lr-tb;text-anchor:start;stroke-width:0.27918985"
           id="path4543" />
        <path
           d="m 86.98435,40.698201 q 0,0.209393 -0.287915,0.693613 -0.523481,0.837569 -1.308703,1.806009 -0.772134,0.96844 -1.727487,1.949967 -0.942266,0.96844 -2.015402,1.871445 -1.060049,0.903005 -2.159359,1.596617 -1.09931,0.680525 -2.172447,1.09931 -1.073136,0.418785 -2.041576,0.418785 h -0.09161 q -2.237881,0 -3.350278,-1.282529 -1.112398,-1.282528 -1.112398,-3.572758 0,-0.916091 0.143958,-1.936879 0.143957,-1.020788 0.497307,-2.067751 0.366436,-1.060049 0.981527,-2.107011 0.628177,-1.060049 1.58353,-2.041576 0.719786,-0.719786 1.518095,-1.09931 0.798308,-0.392611 1.505008,-0.392611 0.104696,0 0.274827,0.05235 0.170132,0.05235 0.340263,0.143958 0.183218,0.07852 0.340263,0.209392 0.170131,0.117783 0.287914,0.261741 0.366437,0.471133 0.536568,0.903004 0.170132,0.431872 0.170132,1.007701 0,0.759048 -0.209393,1.387225 -0.209392,0.61509 -0.602003,1.204007 -0.392611,0.588916 -0.96844,1.190919 -0.575829,0.588916 -1.32179,1.282528 -0.248653,0.235567 -0.588916,0.523481 -0.340262,0.287915 -0.732873,0.602004 -0.392611,0.314088 -0.811396,0.654351 -0.418785,0.340263 -0.824482,0.667438 0.104696,2.342578 2.604318,2.342578 1.387224,0 2.957668,-0.732874 0.772134,-0.366436 1.439572,-0.837569 0.667439,-0.48422 1.308703,-0.981527 0.314089,-0.248654 0.693612,-0.588916 0.379524,-0.340263 0.772135,-0.719787 0.405698,-0.379524 0.798308,-0.759047 0.405698,-0.379524 0.759048,-0.719787 0.222479,-0.222479 0.471133,-0.471133 0.26174,-0.248653 0.549655,-0.536568 l 0.706699,-0.706699 q 0.641265,-0.562742 0.929179,-0.562742 0.157045,0 0.157045,0.248653 z M 76.90734,38.735147 q 0,-0.39261 -0.209393,-0.680525 -0.209392,-0.301002 -0.510394,-0.301002 -0.222479,0 -0.575829,0.183219 -0.340263,0.183218 -0.732873,0.654351 -0.798309,0.96844 -1.361051,2.342578 -0.562742,1.36105 -0.785222,3.03619 0.824483,-0.667439 1.387225,-1.19092 0.575829,-0.523481 1.033875,-0.981527 0.314089,-0.314088 0.61509,-0.667438 0.314089,-0.35335 0.562743,-0.74596 0.26174,-0.392611 0.418784,-0.811396 0.157045,-0.418785 0.157045,-0.83757 z m 3.481149,-9.906878 q 0,0.143957 -0.22248,0.405698 -0.09161,0.104696 -0.471133,0.353349 -0.366437,0.235567 -0.850657,0.536568 -0.471132,0.301002 -0.994613,0.628178 -0.510394,0.314088 -0.876831,0.562742 -0.588916,0.418785 -1.164746,0.824482 -0.562742,0.405698 -1.151658,0.772135 -0.01309,0.01309 -0.117783,0.07852 -0.09161,0.05235 -0.209392,0.13087 -0.117784,0.06544 -0.22248,0.130871 -0.104696,0.05235 -0.117783,0.05235 -0.170131,0 -0.327176,-0.07852 -0.143957,-0.09161 -0.26174,-0.209393 -0.104696,-0.13087 -0.170132,-0.287914 -0.06543,-0.157045 -0.06543,-0.301002 0,-0.562742 1.662053,-1.740574 1.648965,-1.164746 2.931493,-1.884532 0.444959,-0.248654 0.693613,-0.405698 0.248653,-0.170131 0.444959,-0.314089 0.183218,-0.143957 0.379523,-0.222479 0.196306,-0.07852 0.379524,-0.07852 0.05235,0 0.170131,0.09161 0.130871,0.09161 0.248654,0.248653 0.13087,0.143958 0.222479,0.327176 0.09161,0.183218 0.09161,0.379524 z"
           style="font-style:normal;font-variant:normal;font-weight:normal;font-stretch:normal;font-size:26.80222893px;font-family:'Segoe Script';-inkscape-font-specification:'Segoe Script, Normal';font-variant-ligatures:normal;font-variant-caps:normal;font-variant-numeric:normal;font-feature-settings:normal;text-align:start;writing-mode:lr-tb;text-anchor:start;stroke-width:0.27918985"
           id="path4545" />
        <path
           d="m 107.68803,40.619679 q 0,0.497307 -0.22248,1.007701 -0.22248,0.510394 -0.5104,0.955353 -0.36643,0.549655 -0.87683,1.243267 -0.51039,0.680526 -1.13857,1.387225 -0.61509,0.7067 -1.33488,1.387225 -0.70669,0.667438 -1.47883,1.190919 -0.75905,0.523481 -1.55736,0.850657 -0.798304,0.314089 -1.583525,0.314089 -0.850657,0 -1.400312,-0.35335 -0.536568,-0.35335 -0.889918,-0.929179 -0.340263,-0.575829 -0.536568,-1.308703 -0.183218,-0.74596 -0.340263,-1.518095 -0.183218,-0.942265 -0.366436,-1.596617 -0.170132,-0.654351 -0.366437,-1.060049 -0.183219,-0.418785 -0.392611,-0.602003 -0.209392,-0.183218 -0.444959,-0.183218 -0.458046,0 -0.955353,0.405697 -0.497307,0.405698 -1.046962,1.099311 -0.549655,0.680525 -1.164745,1.570443 -0.602003,0.889918 -1.269442,1.84527 -0.405697,0.57583 -0.837569,1.112398 -0.431872,0.536568 -0.850657,0.981527 -0.405698,0.444958 -0.772134,0.772134 -0.366437,0.314089 -0.641265,0.458046 -0.287914,-0.06544 -0.510394,-0.170131 -0.222479,-0.117784 -0.366436,-0.35335 -0.143958,-0.248654 -0.22248,-0.654351 -0.07852,-0.405698 -0.07852,-1.060049 0,-0.497307 0.05235,-1.230181 0.06543,-0.732873 0.157044,-1.518095 0.104697,-0.798308 0.209393,-1.544269 0.117783,-0.759047 0.235566,-1.295615 0.07852,-0.35335 0.117783,-0.7067 0.05235,-0.35335 0.09161,-0.654351 0.05235,-0.314089 0.09161,-0.549655 0.05235,-0.248654 0.13087,-0.405698 0.261741,-0.536568 0.523481,-0.863744 0.261741,-0.340262 0.602003,-0.340262 0.104697,0 0.274828,0.02617 0.183218,0.02617 0.340263,0.117783 0.170131,0.07852 0.287914,0.235566 0.13087,0.157045 0.13087,0.405698 0,0.628177 -0.209392,1.45266 -0.209392,0.824483 -0.418785,1.688226 -0.07852,0.35335 -0.196305,0.811396 -0.117783,0.444959 -0.22248,0.916092 -0.09161,0.471133 -0.170131,0.929179 -0.06543,0.444958 -0.06543,0.785221 0,0.05235 -0.01309,0.170131 0,0.117784 -0.01309,0.248654 0,0.13087 0,0.248653 0,0.117784 0.02617,0.183219 0.431872,-0.301002 0.916092,-0.942266 0.48422,-0.641264 0.96844,-1.387225 0.497307,-0.759047 0.968439,-1.505008 0.471133,-0.759047 0.889918,-1.282528 0.431872,-0.562742 0.811396,-0.994614 0.379524,-0.431872 0.785221,-0.719787 0.405698,-0.301001 0.863744,-0.444959 0.471133,-0.157044 1.086223,-0.157044 0.680526,0 1.125484,0.35335 0.458046,0.340262 0.745961,0.903005 0.301002,0.562742 0.471133,1.295615 0.170131,0.732874 0.287914,1.491921 0.130871,0.811396 0.274828,1.491921 0.143957,0.667438 0.379524,1.151658 0.248653,0.471133 0.61509,0.745961 0.366437,0.26174 0.942266,0.26174 0.785221,0 1.531181,-0.431872 0.75905,-0.431871 1.66205,-1.256354 1.50501,-1.361051 2.56506,-2.591231 1.07314,-1.230181 1.96305,-2.224795 0.0393,0.06544 0.18322,0.117784 0.15705,0.05235 0.15705,0.222479 z"
           style="font-style:normal;font-variant:normal;font-weight:normal;font-stretch:normal;font-size:26.80222893px;font-family:'Segoe Script';-inkscape-font-specification:'Segoe Script, Normal';font-variant-ligatures:normal;font-variant-caps:normal;font-variant-numeric:normal;font-feature-settings:normal;text-align:start;writing-mode:lr-tb;text-anchor:start;stroke-width:0.27918985"
           id="path4547" />
        <path
           d="m 127.59339,43.263258 q 0.0785,-0.02617 0.0916,-0.02617 0.0916,0 0.0916,0.157045 0,0.157044 -0.0785,0.405697 -0.0785,0.235567 -0.23557,0.510394 -0.14396,0.274828 -0.36644,0.549656 -0.22248,0.274827 -0.4973,0.497307 -0.61509,0.497306 -1.36105,0.942265 -0.73288,0.431872 -1.54427,0.759048 -0.8114,0.327176 -1.67514,0.510394 -0.86375,0.183218 -1.74058,0.183218 -0.94226,0 -1.64896,-0.287914 -0.7067,-0.287915 -1.2171,-0.759048 -0.51039,-0.471133 -0.85065,-1.073136 -0.34026,-0.602003 -0.56274,-1.23018 -0.22248,-0.628178 -0.35335,-1.230181 -0.13087,-0.602003 -0.22248,-1.073136 -0.0785,-0.471133 -0.14396,-0.759047 -0.0523,-0.287915 -0.14396,-0.287915 -0.31409,0 -0.65435,0.366437 -0.34026,0.366436 -0.7067,0.96844 -0.35335,0.602003 -0.75905,1.374137 -0.39261,0.759048 -0.82448,1.570443 -0.41878,0.798309 -0.87683,1.570444 -0.44496,0.759047 -0.94227,1.36105 -0.48422,0.602003 -1.0077,0.96844 -0.51039,0.366437 -1.06005,0.366437 -0.54965,0 -0.88991,-0.418785 -0.32718,-0.418785 -0.5104,-1.073136 -0.18322,-0.667438 -0.24865,-1.491921 -0.0524,-0.824483 -0.0524,-1.635878 0,-0.719787 0.0262,-1.361051 0.0262,-0.641264 0.0262,-1.09931 0,-0.183218 -0.0131,-0.314089 -0.0131,-0.143957 -0.0262,-0.26174 -0.0131,-0.117783 -0.0262,-0.235567 -0.0131,-0.117783 -0.0131,-0.274827 0,-0.444959 0.11778,-0.876831 0.11778,-0.431872 0.301,-0.759047 0.18322,-0.340263 0.4057,-0.549656 0.22248,-0.209392 0.44496,-0.209392 0.23557,0 0.44496,0.06544 0.20939,0.06544 0.36643,0.248654 0.17014,0.183218 0.26175,0.510394 0.10469,0.314088 0.10469,0.811395 0,0.602003 -0.0654,1.387225 -0.0654,0.772135 -0.14396,1.557356 -0.0785,0.785222 -0.14396,1.491921 -0.0654,0.706699 -0.0654,1.177832 0,0.641265 0.15704,0.641265 0.31409,0 0.62818,-0.287915 0.32717,-0.287915 0.64126,-0.772134 0.32718,-0.48422 0.65435,-1.125485 0.34027,-0.641264 0.66744,-1.36105 0.60201,-1.334877 1.13857,-2.316404 0.54966,-0.994614 1.12549,-1.648965 0.57583,-0.667439 1.24326,-0.981527 0.68053,-0.327176 1.55736,-0.327176 0.14396,0 0.26174,0.104696 0.11778,0.09161 0.19631,0.261741 0.0785,0.157044 0.11778,0.366437 0.0523,0.196305 0.0523,0.39261 0,1.138572 0.0785,2.054663 0.0916,0.903005 0.28791,1.609705 0.19631,0.706699 0.5104,1.217093 0.31409,0.510394 0.75905,0.850657 0.17013,0.143957 0.47113,0.274827 0.301,0.117784 0.65435,0.209393 0.36644,0.07852 0.73287,0.13087 0.37953,0.05235 0.68053,0.05235 0.35335,0 0.903,-0.07852 0.56275,-0.07852 1.20401,-0.248654 0.64126,-0.170131 1.3087,-0.418784 0.66744,-0.261741 1.25636,-0.615091 0.1963,-0.117783 0.36643,-0.222479 0.17014,-0.104696 0.35335,-0.209392 0.19631,-0.117784 0.43188,-0.248654 0.23556,-0.143957 0.54965,-0.327176 z"
           style="font-style:normal;font-variant:normal;font-weight:normal;font-stretch:normal;font-size:26.80222893px;font-family:'Segoe Script';-inkscape-font-specification:'Segoe Script, Normal';font-variant-ligatures:normal;font-variant-caps:normal;font-variant-numeric:normal;font-feature-settings:normal;text-align:start;writing-mode:lr-tb;text-anchor:start;stroke-width:0.27918985"
           id="path4549" />
        <path
           d="m 141.89751,40.698201 q 0,0.209393 -0.28791,0.693613 -0.52348,0.837569 -1.3087,1.806009 -0.77214,0.96844 -1.72749,1.949967 -0.94227,0.96844 -2.0154,1.871445 -1.06005,0.903005 -2.15936,1.596617 -1.09931,0.680525 -2.17245,1.09931 -1.07313,0.418785 -2.04157,0.418785 h -0.0916 q -2.23789,0 -3.35028,-1.282529 -1.1124,-1.282528 -1.1124,-3.572758 0,-0.916091 0.14396,-1.936879 0.14396,-1.020788 0.4973,-2.067751 0.36644,-1.060049 0.98153,-2.107011 0.62818,-1.060049 1.58353,-2.041576 0.71979,-0.719786 1.5181,-1.09931 0.79831,-0.392611 1.505,-0.392611 0.1047,0 0.27483,0.05235 0.17013,0.05235 0.34027,0.143958 0.18321,0.07852 0.34026,0.209392 0.17013,0.117783 0.28791,0.261741 0.36644,0.471133 0.53657,0.903004 0.17013,0.431872 0.17013,1.007701 0,0.759048 -0.20939,1.387225 -0.20939,0.61509 -0.602,1.204007 -0.39261,0.588916 -0.96844,1.190919 -0.57583,0.588916 -1.32179,1.282528 -0.24866,0.235567 -0.58892,0.523481 -0.34026,0.287915 -0.73287,0.602004 -0.39261,0.314088 -0.8114,0.654351 -0.41878,0.340263 -0.82448,0.667438 0.10469,2.342578 2.60432,2.342578 1.38722,0 2.95766,-0.732874 0.77214,-0.366436 1.43958,-0.837569 0.66744,-0.48422 1.3087,-0.981527 0.31409,-0.248654 0.69361,-0.588916 0.37953,-0.340263 0.77214,-0.719787 0.40569,-0.379524 0.79831,-0.759047 0.40569,-0.379524 0.75904,-0.719787 0.22248,-0.222479 0.47114,-0.471133 0.26174,-0.248653 0.54965,-0.536568 l 0.7067,-0.706699 q 0.64126,-0.562742 0.92918,-0.562742 0.15704,0 0.15704,0.248653 z M 131.8205,38.735147 q 0,-0.39261 -0.20939,-0.680525 -0.20939,-0.301002 -0.51039,-0.301002 -0.22248,0 -0.57583,0.183219 -0.34026,0.183218 -0.73288,0.654351 -0.7983,0.96844 -1.36105,2.342578 -0.56274,1.36105 -0.78522,3.03619 0.82449,-0.667439 1.38723,-1.19092 0.57583,-0.523481 1.03387,-0.981527 0.31409,-0.314088 0.61509,-0.667438 0.31409,-0.35335 0.56274,-0.74596 0.26175,-0.392611 0.41879,-0.811396 0.15704,-0.418785 0.15704,-0.83757 z"
           style="font-style:normal;font-variant:normal;font-weight:normal;font-stretch:normal;font-size:26.80222893px;font-family:'Segoe Script';-inkscape-font-specification:'Segoe Script, Normal';font-variant-ligatures:normal;font-variant-caps:normal;font-variant-numeric:normal;font-feature-settings:normal;text-align:start;writing-mode:lr-tb;text-anchor:start;stroke-width:0.27918985"
           id="path4551" />
        <path
           d="m 156.64659,45.775967 q 0,0.117784 -0.0523,0.274828 -0.0523,0.157044 -0.13087,0.327176 -0.0785,0.170131 -0.17013,0.327175 -0.0916,0.143957 -0.17013,0.261741 -0.24865,0.340262 -0.62818,0.680525 -0.36643,0.340263 -0.83757,0.628177 -0.45804,0.274828 -1.0077,0.458046 -0.53656,0.170132 -1.12548,0.170132 -0.75905,0 -1.40031,-0.248654 -0.62818,-0.261741 -1.12549,-0.811396 -0.48422,-0.549655 -0.83757,-1.426485 -0.34026,-0.876831 -0.53656,-2.120099 -0.36644,0.48422 -0.86375,1.125485 -0.48422,0.641264 -1.07313,1.308702 -0.57583,0.667439 -1.23018,1.32179 -0.64127,0.641264 -1.29562,1.151658 -0.65435,0.510394 -1.29562,0.824483 -0.62817,0.314088 -1.204,0.314088 -0.13087,0 -0.43187,-0.170131 -0.28792,-0.183218 -0.60201,-0.458046 -0.31409,-0.274827 -0.58891,-0.628177 -0.27483,-0.35335 -0.36644,-0.7067 -0.22248,-0.772134 -0.22248,-1.570443 0,-0.811395 0.13087,-1.596617 0.15704,-0.876831 0.45805,-1.832183 0.31409,-0.955353 0.64126,-1.858358 0.32718,-0.916092 0.58892,-1.727487 0.26174,-0.824483 0.31409,-1.439573 0.0523,-0.09161 0.20939,-0.209393 0.15704,-0.13087 0.34026,-0.235566 0.18322,-0.117783 0.35335,-0.183219 0.18322,-0.07852 0.28791,-0.07852 0.15705,0 0.34027,0.104696 0.18322,0.104697 0.34026,0.261741 0.15704,0.157044 0.24865,0.327176 0.1047,0.170131 0.1047,0.301001 0,0.104696 -0.0785,0.35335 -0.0654,0.248653 -0.18322,0.575829 -0.11778,0.314089 -0.27483,0.667438 -0.15704,0.340263 -0.31409,0.628178 -0.301,0.693612 -0.602,1.321789 -0.28791,0.61509 -0.52348,1.243268 -0.23557,0.61509 -0.39261,1.295615 -0.14396,0.667439 -0.14396,1.465747 0,0.209393 0.0523,0.536568 0.0523,0.314089 0.14396,0.628177 0.10469,0.301002 0.24865,0.523481 0.15704,0.209393 0.36644,0.209393 0.20939,0 0.47113,-0.104696 0.26174,-0.104697 0.53657,-0.248654 0.27483,-0.157044 0.52348,-0.327175 0.26174,-0.183219 0.45804,-0.327176 0.5104,-0.379524 1.02079,-0.889918 0.52348,-0.510394 0.96844,-1.033875 0.45805,-0.523481 0.8114,-0.981527 0.36643,-0.471133 0.54965,-0.759047 0.28792,-0.458046 0.53657,-0.994614 0.26174,-0.549655 0.48422,-1.086223 0.23557,-0.549656 0.47113,-1.06005 0.23557,-0.523481 0.48422,-0.916091 0.26174,-0.392611 0.54966,-0.628178 0.28791,-0.248653 0.65435,-0.248653 0.28791,0 0.43187,0.104696 0.15705,0.104696 0.22248,0.261741 0.0785,0.157044 0.0916,0.340262 0.0131,0.183219 0.0131,0.340263 0,0.104696 -0.15705,0.471133 -0.15704,0.35335 -0.34026,0.863744 -0.18322,0.497307 -0.34026,1.09931 -0.15705,0.588916 -0.15705,1.164745 0,0.850657 0.18322,1.570443 0.18322,0.719787 0.5104,1.256355 0.32717,0.536568 0.77213,0.837569 0.45805,0.301002 0.99461,0.301002 0.58892,0 1.26945,-0.22248 0.68052,-0.222479 1.32179,-0.693612 0.0393,-0.03926 0.15704,-0.143957 0.13087,-0.117783 0.27483,-0.235567 0.15704,-0.117783 0.28791,-0.209392 0.13087,-0.09161 0.19631,-0.09161 0.10469,0 0.1963,0.06544 0.0916,0.06544 0.0916,0.209392 z"
           style="font-style:normal;font-variant:normal;font-weight:normal;font-stretch:normal;font-size:26.80222893px;font-family:'Segoe Script';-inkscape-font-specification:'Segoe Script, Normal';font-variant-ligatures:normal;font-variant-caps:normal;font-variant-numeric:normal;font-feature-settings:normal;text-align:start;writing-mode:lr-tb;text-anchor:start;stroke-width:0.27918985"
           id="path4553" />
      </g>
    </g>
  </g>
</svg>
